<?xml version="1.0" standalone="no"?>
<!DOCTYPE svg PUBLIC "-//W3C//DTD SVG 20010904//EN"
 "http://www.w3.org/TR/2001/REC-SVG-20010904/DTD/svg10.dtd">
<svg version="1.0" xmlns="http://www.w3.org/2000/svg"
 width="402.000000pt" height="402.000000pt" viewBox="0 0 402.000000 402.000000"
 preserveAspectRatio="xMidYMid meet">
<metadata>
Created by potrace 1.14, written by Peter Selinger 2001-2017
</metadata>
<g transform="translate(0.000000,402.000000) scale(0.100000,-0.100000)"
fill="#000000" stroke="none">
<path d="M995 3946 l-30 -24 29 -84 c48 -137 151 -407 195 -506 27 -64 36 -92
25 -88 -26 10 4 -34 62 -90 49 -48 52 -53 36 -67 -15 -13 -23 -13 -77 7 l-60
21 -10 60 c-10 56 -14 62 -65 102 -30 24 -97 69 -147 100 -51 32 -93 61 -93
66 0 5 -35 58 -77 117 l-77 109 -30 -21 c-40 -27 -86 -77 -86 -94 0 -7 13 -22
29 -33 16 -12 52 -48 80 -80 l52 -60 -21 -40 c-11 -22 -20 -49 -20 -60 0 -14
-13 -27 -40 -41 -43 -22 -45 -30 -30 -94 8 -36 6 -41 -21 -67 -31 -29 -35 -52
-18 -112 15 -57 23 -37 9 22 -12 50 -11 52 17 85 28 30 29 37 23 85 -6 50 -5
53 21 67 16 8 30 14 32 14 2 0 21 -38 42 -85 21 -47 40 -84 42 -82 2 2 -6 26
-18 53 -40 95 -49 128 -36 136 9 6 9 8 -1 8 -19 0 -6 34 36 97 21 33 42 53 54
53 32 0 169 -75 245 -134 l71 -56 12 -73 c7 -39 20 -91 30 -114 10 -24 16 -44
12 -47 -4 -2 -33 -7 -65 -11 l-58 -7 -45 45 c-57 58 -58 42 0 -19 43 -44 45
-45 90 -39 42 7 46 5 46 -13 0 -11 -12 -34 -26 -51 -21 -25 -33 -31 -65 -31
-25 0 -42 -5 -45 -14 -3 -8 -22 -17 -42 -21 -45 -8 -62 -21 -62 -47 0 -17 -3
-18 -14 -9 -11 9 -16 9 -21 1 -4 -7 -15 -10 -25 -7 -9 2 16 -27 57 -66 40 -39
95 -98 121 -131 l48 -61 -16 -80 c-9 -44 -20 -93 -24 -110 -7 -28 -7 -29 8
-10 8 11 34 43 58 72 42 50 43 51 46 25 1 -15 9 -53 18 -84 8 -31 12 -67 9
-80 -3 -13 1 -54 9 -91 11 -52 23 -77 50 -107 35 -39 38 -47 52 -125 l7 -40
13 32 13 31 51 -51 c27 -28 50 -54 50 -57 0 -8 -96 -50 -114 -50 -6 0 -29 19
-51 41 -55 57 -116 97 -177 118 l-51 17 -24 80 c-13 43 -30 106 -37 139 -9 36
-14 49 -15 33 -1 -26 -4 -28 -48 -29 -27 0 -57 -5 -68 -10 -14 -6 0 -7 43 -4
69 7 67 9 76 -67 8 -64 -19 -96 -89 -107 l-50 -9 43 -1 c66 -2 100 22 113 79
4 21 7 16 17 -28 18 -78 26 -89 81 -102 36 -8 69 -28 123 -73 104 -87 103 -86
84 -93 -22 -8 -12 -20 21 -27 19 -4 38 -22 59 -54 40 -61 177 -234 182 -228 5
4 -59 93 -140 193 -32 39 -52 72 -46 71 7 0 54 -19 105 -42 73 -33 99 -51 127
-87 34 -43 35 -44 18 -73 -36 -62 -59 -78 -105 -76 -48 3 -67 -5 -67 -27 0
-17 9 -17 -125 1 -166 22 -209 20 -229 -10 -24 -36 -63 -71 -149 -132 l-79
-56 49 -26 c86 -48 140 -90 190 -148 26 -32 55 -64 63 -71 28 -23 89 -52 112
-52 20 0 19 2 -12 30 -41 34 -39 35 40 13 33 -9 63 -14 66 -11 3 3 -2 23 -11
44 -8 21 -14 43 -11 50 2 6 52 17 116 24 122 14 116 9 95 76 -6 19 -2 21 61
27 37 4 69 5 71 3 2 -2 -3 -40 -12 -85 -10 -45 -14 -93 -11 -106 6 -22 3 -25
-23 -25 -51 0 -56 -21 -21 -91 l32 -62 -114 -116 c-225 -228 -250 -259 -229
-285 23 -27 53 -18 146 42 82 53 195 142 180 142 -3 0 -29 -17 -58 -38 -120
-88 -208 -142 -232 -142 -36 0 -31 15 21 76 62 73 275 298 285 302 5 2 6 -82
2 -187 -4 -140 -3 -194 6 -205 6 -7 41 -19 77 -26 35 -7 74 -20 85 -29 11 -9
36 -60 57 -113 l38 -96 45 27 c70 45 80 60 76 122 -3 44 1 60 20 88 14 21 23
28 23 18 0 -9 14 -26 30 -39 27 -20 30 -27 30 -79 0 -56 1 -58 37 -80 21 -12
48 -31 60 -42 21 -19 21 -19 32 1 6 12 11 49 11 84 0 73 16 103 59 113 24 5
40 -3 101 -49 110 -82 131 -92 169 -77 44 19 48 45 15 92 -15 22 -37 47 -48
55 -18 12 -18 14 -3 14 9 0 27 6 38 13 19 11 25 7 70 -43 l48 -55 28 17 c46
28 50 42 20 81 -15 20 -27 39 -27 43 0 7 125 -1 172 -12 24 -6 29 -1 53 45 14
29 30 49 35 46 4 -3 13 10 20 29 12 37 26 46 73 46 41 0 62 14 54 34 -5 13 2
16 36 18 23 1 52 1 65 0 12 0 22 2 21 6 0 4 -34 29 -76 55 -72 46 -74 48 -60
70 16 24 121 55 194 56 76 2 64 18 -52 66 -71 29 -117 36 -305 45 l-184 10
-30 30 c-36 35 -36 36 100 15 132 -20 149 -19 99 6 -79 39 -76 45 32 52 54 4
122 7 151 7 56 0 62 5 35 27 -16 13 -12 14 37 9 30 -3 92 -9 137 -12 79 -7 82
-6 76 14 -6 24 16 38 76 48 43 7 47 24 5 24 -14 0 -82 18 -151 41 l-126 41
-118 119 c-137 136 -135 135 -301 125 l-110 -7 19 26 c10 14 77 70 148 124
148 111 245 197 245 216 0 8 -9 29 -19 47 -11 18 -25 51 -31 74 -10 34 -10 46
4 72 26 50 57 65 124 60 31 -3 66 -8 77 -12 13 -5 11 -2 -5 8 -62 37 -163 28
-194 -18 -29 -46 -29 -73 0 -157 l28 -81 -44 -39 c-25 -22 -92 -76 -149 -122
-58 -45 -136 -108 -174 -139 -58 -49 -76 -58 -109 -58 -57 0 -57 21 -1 72 167
154 293 258 315 258 18 0 20 2 8 10 -12 7 -12 12 4 29 24 27 12 27 -16 1 -12
-11 -27 -20 -34 -20 -7 0 -47 18 -89 40 -42 22 -85 40 -95 40 -28 0 -25 12 21
98 51 95 53 97 69 77 21 -25 29 -17 14 14 -14 28 -13 34 15 89 17 33 36 62 42
64 6 2 12 22 12 43 0 37 2 40 28 41 36 1 49 -34 19 -55 -11 -7 -20 -22 -20
-33 0 -17 5 -20 30 -14 25 4 30 2 30 -14 0 -10 4 -21 10 -25 5 -3 -2 -21 -15
-41 -29 -42 -49 -133 -40 -177 7 -30 44 -110 45 -96 0 4 -7 24 -16 45 -20 49
-14 146 12 201 32 64 168 123 285 123 29 0 48 -8 76 -32 69 -59 67 -53 21 -97
-24 -22 -41 -42 -38 -44 3 -3 26 14 52 38 l46 44 -53 50 c-51 48 -105 71 -139
58 -10 -4 -16 5 -20 29 -4 19 -11 34 -16 34 -17 0 -11 119 7 157 9 20 30 44
47 55 46 29 151 18 226 -23 37 -20 47 -23 30 -9 -41 34 -73 48 -139 60 -79 14
-110 7 -148 -33 -56 -59 -67 -132 -33 -217 25 -62 25 -60 -2 -60 -13 0 -52
-14 -86 -30 -75 -35 -88 -37 -95 -10 -4 15 3 24 28 36 76 36 70 75 -9 57 -40
-9 -45 -8 -49 9 -4 13 2 20 21 24 38 9 72 32 72 48 0 22 -28 27 -69 12 l-39
-13 10 30 c13 37 100 94 297 195 l144 75 77 -6 c42 -3 90 -12 106 -20 29 -15
71 -55 63 -60 -45 -31 -119 -89 -119 -93 0 -7 15 2 78 49 33 24 52 45 50 55
-2 9 -23 30 -46 47 -35 24 -57 31 -110 35 l-67 6 57 29 c31 16 55 31 53 35 -2
3 -23 7 -47 9 -50 2 -88 24 -88 49 0 20 104 102 130 102 8 0 -11 11 -43 24
-78 33 -97 51 -97 95 0 55 38 185 95 326 13 34 13 37 0 21 -21 -27 -73 -165
-96 -256 -31 -116 -18 -149 70 -186 l43 -19 -52 -34 c-68 -44 -81 -73 -50
-106 16 -17 35 -25 69 -27 l46 -3 -55 -24 c-219 -97 -512 -264 -569 -325 -30
-32 -41 -26 -41 22 0 20 -7 66 -15 101 -9 35 -14 65 -12 67 1 1 29 -6 61 -17
33 -10 72 -19 87 -19 26 0 28 2 18 23 -6 13 -26 29 -44 36 -22 7 -59 41 -104
95 -73 86 -82 99 -56 90 17 -7 115 15 115 25 0 4 -25 21 -55 36 -54 29 -55 30
-55 75 0 25 -3 62 -7 84 -6 36 -5 38 15 27 32 -17 62 -13 119 15 62 32 146
105 208 181 41 50 45 52 45 29 0 -64 72 -84 145 -42 39 23 155 144 155 162 0
5 -27 -21 -60 -58 -73 -81 -156 -128 -195 -110 -23 11 -49 71 -35 82 4 3 10
14 13 25 5 14 0 11 -19 -10 -108 -125 -163 -179 -222 -218 -84 -57 -110 -64
-152 -42 l-33 17 5 -86 c3 -51 1 -86 -5 -86 -5 0 -43 34 -85 76 l-74 76 68 44
c38 24 71 49 73 55 2 7 -4 7 -18 -1 -18 -9 -49 -6 -155 16 l-133 28 33 43 c28
37 70 140 61 149 -2 2 -32 -6 -67 -17 -65 -20 -255 -47 -265 -37 -3 3 1 20 9
39 8 19 17 56 22 84 6 42 5 48 -7 39 -8 -6 -33 -14 -56 -18 -74 -11 -150 -46
-201 -91 l-49 -44 -6 69 c-8 90 -15 101 -37 53 -22 -48 -175 -193 -204 -193
-3 0 -6 30 -7 68 0 37 -6 85 -14 107 l-13 40 -1 -40 c-1 -23 -15 -63 -32 -95
-17 -30 -28 -47 -25 -37 20 63 19 67 -18 100 l-35 33 30 148 c16 82 28 151 26
153 -6 5 -57 -209 -63 -265 -5 -44 -3 -49 29 -80 l34 -33 -14 -52 c-19 -66
-54 -113 -90 -120 -15 -3 -30 -4 -31 -2 -2 2 9 43 25 91 l28 87 -24 16 c-66
44 -64 28 -31 215 16 93 31 170 33 172 1 2 28 -1 60 -5 61 -8 74 2 40 31 -29
25 -53 29 -81 14 -25 -13 -29 -25 -60 -178 -41 -212 -41 -220 3 -244 41 -22
42 -31 14 -129 l-22 -73 -49 -7 c-27 -4 -52 -5 -54 -2 -15 15 -128 348 -190
562 -25 88 -51 166 -56 173 -17 20 -70 14 -103 -12z m75 5 c0 -5 -12 -16 -26
-26 -14 -9 -23 -19 -20 -22 2 -3 19 5 36 17 17 12 33 20 36 18 2 -3 29 -97 59
-209 31 -112 72 -241 91 -286 20 -46 42 -107 51 -136 8 -28 17 -60 20 -69 4
-15 -1 -18 -31 -18 -42 0 -34 -15 -125 220 -33 85 -88 226 -121 312 -34 87
-58 163 -55 169 7 10 61 38 78 39 4 0 7 -4 7 -9z m494 -107 c30 -12 16 -19
-30 -15 -32 2 -42 6 -33 12 16 10 41 11 63 3z m-874 -212 c0 -12 -70 -92 -81
-92 -19 0 -8 21 31 60 41 41 50 47 50 32z m106 -114 c52 -75 53 -78 28 -76
-18 2 -32 -6 -46 -25 l-20 -27 -55 67 c-30 38 -59 70 -64 71 -5 2 10 26 33 52
49 56 36 63 124 -62z m1381 -50 c-38 -47 -56 -98 -35 -98 7 0 24 -6 38 -13 37
-19 203 -3 287 27 l43 15 -41 -39 c-23 -22 -46 -37 -52 -33 -6 4 -7 1 -2 -6 4
-8 -10 -29 -39 -58 -25 -24 -46 -45 -46 -46 0 -1 24 -1 53 -1 65 2 109 -5 101
-17 -3 -5 3 -8 13 -7 33 5 114 -13 107 -23 -3 -6 5 -8 23 -4 28 5 28 5 3 -6
-14 -6 -33 -15 -42 -20 -10 -5 -27 -9 -38 -9 -31 0 -24 -17 13 -29 17 -6 49
-30 69 -54 35 -39 36 -43 20 -56 -15 -12 -15 -12 5 -6 18 5 32 -3 65 -34 l42
-41 -29 -2 c-17 0 -38 0 -48 0 -13 1 -16 -4 -12 -21 20 -91 25 -119 25 -172 0
-33 -9 -100 -20 -150 -11 -49 -30 -139 -43 -199 -13 -61 -27 -104 -31 -97 -7
11 -5 38 10 149 5 33 3 42 -9 42 -11 0 -17 -15 -23 -52 -7 -50 -7 -51 -15 -23
-10 36 -5 170 9 240 31 152 37 215 22 215 -5 0 -10 -10 -10 -22 0 -13 -6 -35
-14 -50 -8 -14 -19 -43 -26 -65 -7 -21 -18 -44 -24 -52 -9 -12 -8 -13 4 -6 12
6 12 5 4 -4 -9 -10 -17 -10 -35 1 -33 18 -36 24 -37 72 -2 66 -12 154 -21 178
-9 26 -6 37 -32 -104 -7 -37 -16 -65 -20 -63 -4 3 -5 -4 -2 -15 4 -15 0 -20
-15 -20 -12 0 -23 4 -26 8 -4 6 -7 134 -7 286 0 15 5 34 10 40 7 8 4 12 -10
13 -14 1 -19 -5 -19 -22 0 -43 -23 -124 -33 -118 -6 3 -7 2 -4 -4 8 -13 -13
-93 -25 -93 -5 0 -6 5 -2 12 4 7 3 8 -4 4 -9 -5 -9 -13 -2 -26 16 -31 -15 -97
-48 -103 -15 -3 -28 -4 -29 -3 -3 2 15 112 37 231 31 169 39 361 16 363 -30 2
-172 47 -178 56 -6 8 -11 6 -17 -3 -5 -7 -14 -10 -20 -7 -6 4 -11 5 -11 2 0
-9 36 -25 69 -31 17 -3 56 -15 86 -26 l55 -20 0 -62 c0 -34 -5 -91 -11 -127
-21 -131 -153 -488 -178 -482 -7 1 -10 -2 -6 -8 6 -10 -30 -79 -49 -92 -6 -4
-17 -1 -25 5 -10 8 -8 3 3 -15 16 -25 15 -32 -6 -30 -3 1 -9 -5 -12 -14 -3 -8
-2 -12 4 -9 16 10 12 -4 -9 -33 -10 -15 -33 -54 -51 -87 -35 -66 -56 -93 -46
-60 3 11 10 67 15 126 6 58 13 112 16 121 6 14 -11 36 -20 26 -2 -1 -9 -41
-15 -88 -14 -99 -28 -135 -24 -58 15 251 26 388 34 418 13 51 15 124 4 128 -5
2 -10 -5 -12 -15 -1 -10 -8 -38 -15 -63 -6 -25 -10 -51 -8 -59 1 -8 -1 -17 -6
-20 -4 -3 -20 -31 -36 -62 l-27 -57 -65 -1 -64 -1 6 53 c3 28 14 99 25 157 11
58 22 121 25 140 8 58 -12 22 -37 -65 -13 -44 -26 -87 -31 -95 -7 -15 -33 -81
-35 -90 0 -3 -4 -14 -9 -25 -4 -11 -14 -35 -21 -53 -7 -18 -21 -35 -31 -39
-33 -11 -55 -36 -41 -44 7 -5 20 -1 30 8 25 23 28 14 12 -32 -8 -22 -16 -62
-19 -90 -3 -27 -10 -79 -16 -114 -20 -110 -31 -46 -35 198 -2 124 -4 228 -5
231 0 3 -5 -8 -10 -25 -12 -40 -12 -361 1 -463 6 -45 12 -125 15 -179 2 -54 7
-124 11 -155 4 -32 4 -58 1 -58 -7 0 -23 56 -76 260 -51 199 -81 356 -84 449
-2 50 -7 76 -16 79 -10 3 -12 -20 -7 -118 4 -68 9 -127 12 -132 3 -5 7 -23 9
-41 2 -18 5 -41 7 -52 3 -17 -2 -19 -29 -17 -19 2 -33 -1 -33 -7 0 -6 -4 -11
-9 -11 -12 0 -35 116 -26 131 6 8 4 10 -5 4 -10 -6 -12 0 -8 24 4 28 2 32 -14
28 -22 -6 -22 -5 1 43 11 23 15 44 10 52 -11 17 -22 4 -43 -55 -27 -73 -30
-50 -6 49 26 114 67 221 96 257 14 16 21 34 17 44 -5 11 -3 14 6 8 10 -6 11
-3 2 12 -6 11 -7 24 -3 29 4 5 -4 -1 -18 -13 -14 -12 -38 -27 -55 -33 -26 -10
-24 -5 26 47 30 32 76 84 103 115 28 33 53 55 60 51 6 -4 -2 10 -17 30 -17 22
-22 34 -12 31 8 -3 15 -11 15 -17 0 -6 3 -8 6 -4 4 3 19 0 35 -8 24 -13 30
-13 43 1 20 20 20 25 -1 17 -12 -5 -14 -3 -8 7 6 9 4 11 -4 5 -7 -4 -23 -3
-34 3 -12 5 -35 15 -52 23 -30 13 -30 13 -5 16 179 21 220 28 220 36 0 5 16
27 36 49 20 22 47 63 60 92 l24 51 0 -55 c0 -77 26 -100 70 -62 11 9 23 16 25
15 3 -1 17 9 32 22 36 32 37 33 77 82 26 32 35 39 40 27 3 -8 1 -24 -4 -34
-13 -25 -13 -33 2 -24 7 5 9 0 6 -14 -3 -12 0 -26 7 -32 10 -8 18 -5 33 14 13
17 22 22 29 15 8 -8 13 -7 18 2 6 8 4 10 -5 4 -31 -19 -1 20 36 47 30 21 158
76 182 78 2 0 -12 -19 -31 -42z m-897 -409 c0 -3 -13 -18 -29 -33 l-29 -28
-21 40 c-12 23 -21 45 -21 50 0 9 100 -19 100 -29z m-80 -88 c0 -6 -4 -13 -10
-16 -5 -3 -10 1 -10 9 0 9 5 16 10 16 6 0 10 -4 10 -9z m-135 -121 c-3 -5 -10
-10 -16 -10 -5 0 -9 5 -9 10 0 6 7 10 16 10 8 0 12 -4 9 -10z m35 -25 c0 -8
-4 -15 -9 -15 -13 0 -22 16 -14 24 11 11 23 6 23 -9z m90 7 c0 -4 -6 -16 -13
-27 -21 -32 -55 -124 -71 -194 -8 -34 -17 -65 -19 -67 -2 -3 -11 6 -19 18 -9
13 -32 41 -51 63 -20 22 -37 47 -37 55 0 8 -11 37 -25 63 -26 48 -26 67 0 67
16 0 55 -47 55 -66 0 -7 -8 -15 -17 -17 -13 -3 -12 -5 5 -6 16 -1 26 6 29 18
2 10 22 27 44 37 25 12 39 26 39 38 0 18 2 18 25 -4 14 -13 25 -18 25 -12 0 6
-5 14 -11 18 -8 4 -7 9 2 15 17 11 39 12 39 1z m-133 -24 c19 -15 16 -26 -9
-34 -16 -5 -27 -1 -40 16 -10 12 -18 27 -18 32 0 12 49 2 67 -14z m1253 -48
c0 -67 -1 -70 -24 -70 l-24 0 22 70 c11 38 22 70 24 70 1 0 2 -31 2 -70z
m-1358 -55 c6 -12 -4 -6 -26 14 -20 19 -36 39 -36 45 0 13 49 -34 62 -59z
m1487 -17 c1 -10 -6 -18 -15 -18 -11 0 -14 5 -10 16 3 9 6 28 7 42 l1 27 8
-25 c4 -14 8 -33 9 -42z m-856 -10 c-4 -30 -11 -48 -18 -48 -10 0 -10 11 3 50
9 27 17 49 18 47 1 -1 0 -23 -3 -49z m538 -45 c-18 -134 -62 -345 -79 -373
-12 -22 -11 -21 11 4 14 16 40 54 58 85 25 41 41 57 59 59 35 5 130 32 130 38
0 7 -68 -7 -112 -22 -21 -7 -38 -10 -38 -6 0 4 24 62 52 130 52 121 53 123 83
120 l30 -3 2 -103 c1 -57 -1 -110 -3 -117 -3 -7 -24 -20 -48 -29 -23 -9 -58
-28 -77 -42 -33 -26 -33 -26 -6 -20 27 6 27 6 27 -43 0 -47 2 -50 27 -53 19
-2 29 -10 34 -28 4 -14 7 -20 8 -14 1 8 16 10 45 7 27 -3 63 1 92 11 26 9 50
14 52 11 3 -3 0 -5 -7 -5 -7 0 -9 -4 -6 -10 3 -6 -4 -10 -17 -11 -22 0 -22 -1
-3 -9 12 -5 -23 -8 -92 -7 -98 2 -111 0 -110 -15 1 -12 15 -18 53 -23 96 -12
187 13 210 57 8 16 17 28 20 26 2 -3 -1 -74 -6 -158 -12 -175 -3 -160 -126
-220 -115 -57 -256 -92 -374 -93 -172 -2 -398 76 -502 172 l-49 46 -1 85 c-1
47 2 104 6 128 l8 43 34 -38 35 -38 -16 34 c-9 18 -23 52 -31 74 -13 38 -13
43 3 54 29 22 43 15 43 -19 0 -18 5 -50 11 -70 11 -42 36 -50 64 -22 9 9 19
13 23 10 3 -4 0 -11 -7 -15 -43 -27 51 -43 101 -17 26 14 38 12 38 -6 0 -5 -4
-7 -9 -4 -5 4 -7 -2 -4 -13 4 -16 -2 -19 -34 -22 -49 -5 -85 0 -78 11 3 5 -7
5 -22 1 -16 -4 -27 -10 -25 -14 1 -4 2 -11 2 -16 0 -15 62 -21 120 -12 30 5
56 8 58 6 2 -2 -2 -14 -9 -27 -11 -21 -11 -22 4 -9 10 7 17 10 17 6 0 -4 13
16 28 46 15 30 61 107 101 172 71 116 201 372 201 397 0 8 3 11 6 7 3 -3 1
-46 -5 -94z m-337 -90 c-7 -171 -7 -170 -39 -144 -14 11 -39 23 -55 26 -17 4
-30 10 -30 13 0 4 18 39 39 77 22 39 49 91 61 118 12 26 24 47 26 47 2 0 1
-62 -2 -137z m430 102 c-4 -8 -10 -13 -14 -10 -5 3 -6 -3 -3 -13 2 -10 -3 -24
-11 -31 -13 -11 -16 -11 -16 -1 0 8 -3 10 -6 7 -4 -4 -2 -13 5 -20 8 -11 5
-28 -16 -75 -14 -34 -28 -60 -30 -58 -2 2 1 25 7 51 6 26 12 66 14 88 3 22 10
44 18 48 7 5 9 9 3 9 -17 1 19 20 37 20 11 0 15 -5 12 -15z m159 9 c3 -3 2
-17 -4 -31 -5 -13 -11 -38 -14 -56 -10 -53 -15 -44 -15 26 0 49 4 67 13 67 8
0 16 -3 20 -6z m70 -36 c3 -18 9 -67 12 -108 l7 -75 -56 0 c-33 0 -55 4 -52
10 2 6 14 54 27 108 18 75 27 97 40 97 11 0 19 -11 22 -32z m62 -12 c18 -13
19 -18 7 -58 -7 -23 -14 -55 -15 -70 -6 -56 -17 -39 -17 25 0 52 4 68 18 77
16 11 16 11 -2 6 -13 -5 -17 -2 -13 8 3 8 1 17 -6 20 -7 2 -7 5 -1 5 5 1 19
-5 29 -13z m-928 -105 c1 -90 -1 -111 -14 -115 -8 -3 -19 -3 -24 0 -6 3 -17 0
-25 -7 -27 -22 -28 1 -1 108 23 93 37 122 57 123 3 0 6 -49 7 -109z m101 103
l31 -6 -33 -67 c-19 -36 -36 -77 -40 -91 -8 -34 -22 -54 -32 -47 -5 3 -8 53
-6 111 4 118 2 116 80 100z m848 -192 c-13 -12 -17 8 -9 44 l8 39 3 -39 c2
-21 1 -41 -2 -44z m412 8 c-3 -16 -4 -30 -2 -30 1 0 18 7 37 15 20 8 44 15 54
15 15 0 15 -2 3 -14 -15 -14 -73 -36 -95 -36 -6 0 -18 11 -25 25 -12 22 -11
27 6 40 26 20 27 19 22 -15z m-103 -89 c-11 -10 -23 16 -28 64 l-6 50 20 -54
c10 -30 17 -57 14 -60z m-724 76 c-10 -9 -11 -8 -5 6 3 10 9 15 12 12 3 -3 0
-11 -7 -18z m-390 -14 c27 -14 49 -32 49 -40 0 -17 2 -17 -45 7 -22 11 -50 20
-62 20 -22 0 -31 19 -16 33 11 11 23 8 74 -20z m1177 -11 c2 -7 -3 -12 -12
-12 -9 0 -16 7 -16 16 0 17 22 14 28 -4z m-117 -43 c27 -52 -1 -179 -51 -224
-20 -18 -20 -18 -20 57 0 61 3 77 16 82 14 5 15 1 10 -31 l-6 -38 20 24 c22
26 26 46 10 56 -8 5 -7 11 1 21 15 19 -1 18 -29 -2 -22 -15 -22 -14 -22 24 0
21 3 42 7 45 14 15 53 6 64 -14z m69 -45 c0 -8 -7 -14 -15 -14 -8 0 -15 9 -15
20 0 13 5 18 15 14 8 -4 15 -12 15 -20z m187 10 c-44 -24 -107 -44 -107 -35 0
18 66 51 100 50 l35 0 -28 -15z m-1758 -19 c26 -13 41 -39 41 -73 0 -9 -5 -10
-19 -2 -11 5 -28 10 -38 9 -10 0 -13 -3 -5 -6 6 -2 12 -13 12 -23 0 -26 11
-50 22 -50 6 0 8 9 5 20 -5 21 0 25 20 12 13 -8 57 -141 50 -149 -8 -7 -111
82 -135 117 -24 35 -29 106 -10 143 11 21 21 21 57 2z m1013 -10 c0 -5 -5 -11
-11 -13 -6 -2 -11 4 -11 13 0 9 5 15 11 13 6 -2 11 -8 11 -13z m269 -21 c-5
-16 -10 -21 -10 -12 -1 18 10 51 15 45 2 -1 -1 -16 -5 -33z m289 11 c0 -10
-31 -67 -35 -63 -9 10 9 68 21 68 8 0 14 -2 14 -5z m-249 -56 c-6 -16 -10 -18
-10 -7 -1 22 12 55 16 42 2 -6 -1 -22 -6 -35z m-41 4 c0 -5 -5 -15 -10 -23 -8
-12 -10 -11 -10 8 0 12 5 22 10 22 6 0 10 -3 10 -7z m113 -100 c6 -29 3 -34
-25 -49 -31 -16 -31 -16 -23 8 4 12 12 45 18 72 12 51 14 48 30 -31z m73 -49
l-35 -69 -1 40 c0 31 7 46 32 72 17 18 33 31 35 29 3 -2 -12 -35 -31 -72z
m-1478 -9 c-3 -4 -16 9 -28 27 l-23 33 28 -27 c16 -15 26 -30 23 -33z m1428
-39 c6 -20 7 -41 1 -53 -8 -18 -14 -19 -55 -12 -25 5 -47 11 -50 14 -11 11 21
62 46 72 42 17 46 15 58 -21z m-1311 -39 c7 -18 17 -46 21 -63 l7 -29 -37 34
c-25 24 -36 44 -36 63 0 39 28 36 45 -5z m117 -119 c-35 -14 -42 -9 -42 35 l1
42 29 -35 c25 -31 27 -36 12 -42z m1373 -47 c-6 -4 -64 -56 -130 -113 -66 -58
-133 -119 -149 -137 l-30 -31 -37 59 c-20 32 -45 63 -55 69 -15 9 -15 10 7 17
13 4 76 30 139 58 63 27 140 58 170 68 60 19 100 24 85 10z m-767 -63 c-32
-11 -36 -23 -10 -33 14 -6 10 -10 -18 -19 -23 -8 -41 -24 -52 -47 -15 -29 -18
-31 -18 -11 0 14 -8 26 -22 31 -18 6 -19 9 -5 14 33 12 16 27 -30 27 -45 0
-46 0 -28 20 17 19 50 24 170 27 38 1 39 1 13 -9z m-483 -136 c13 -11 20 -24
16 -30 -5 -8 -15 -2 -29 18 -26 34 -21 38 13 12z m611 -87 c24 -36 10 -65 -31
-65 -19 0 -37 5 -40 10 -3 6 -1 10 6 10 8 0 7 5 -2 17 -11 13 -11 17 -1 20 6
3 12 11 12 19 0 23 38 16 56 -11z m-96 -14 c0 -4 -37 -11 -82 -14 -115 -9
-158 -9 -158 3 0 5 42 11 93 13 50 1 104 4 120 5 15 1 27 -2 27 -7z m10 -40
c0 -4 -39 -11 -87 -14 -49 -4 -105 -10 -125 -13 -31 -5 -38 -4 -38 9 0 13 14
17 68 20 142 7 182 7 182 -2z m-200 -192 c0 -21 -3 -39 -7 -39 -5 1 -33 7 -63
14 l-55 12 25 16 c45 28 85 46 92 41 5 -2 8 -22 8 -44z m-135 -19 c5 -9 -50
-50 -67 -50 -5 0 -8 14 -8 30 0 28 3 30 34 30 19 0 38 -4 41 -10z m98 -26 c24
-6 27 -11 27 -48 0 -45 -17 -208 -25 -243 -7 -29 -35 -29 -94 -2 -32 14 -41
23 -34 30 8 8 22 8 48 -1 20 -7 39 -10 42 -7 3 3 -14 11 -37 18 -35 11 -40 16
-35 33 3 12 10 36 15 54 11 45 13 46 55 32 20 -7 39 -10 41 -7 3 3 -14 11 -38
19 -35 12 -44 20 -46 42 -3 27 -3 27 45 22 l48 -6 -42 13 c-51 15 -57 20 -48
47 5 17 12 20 28 16 12 -4 34 -9 50 -12z m295 -9 c28 -33 28 -35 -8 -35 -27 0
-30 3 -30 30 0 37 10 38 38 5z m-404 -37 c-9 -53 -24 -64 -46 -35 -26 33 -22
46 10 41 18 -3 23 -2 13 5 -11 7 -10 11 5 20 11 6 20 11 22 11 1 0 -1 -19 -4
-42z m508 25 c10 -9 18 -30 18 -50 0 -28 -3 -33 -24 -33 -18 0 -23 5 -23 25 0
16 5 25 16 26 15 1 14 2 0 6 -19 5 -33 43 -16 43 6 0 19 -7 29 -17z m-57 -58
c0 -21 -17 -33 -51 -34 -15 -1 -23 6 -26 24 -7 32 -1 37 42 33 27 -2 35 -7 35
-23z m9 -61 c9 -33 8 -34 -40 -37 -36 -2 -39 0 -42 25 -3 23 1 27 30 31 18 2
36 5 39 5 4 1 10 -10 13 -24z m56 -31 l-1 -58 -19 55 c-24 66 -24 60 0 60 18
0 20 -7 20 -57z m170 -22 c0 -15 3 -55 6 -88 l7 -60 -51 -6 c-90 -11 -243 -69
-361 -138 -48 -28 -57 -30 -75 -18 -103 65 -240 107 -315 95 -36 -5 -36 -5
-59 51 -29 70 -22 76 73 69 77 -5 185 -45 262 -96 24 -17 49 -30 55 -30 12 0
105 55 205 122 40 26 76 48 81 48 5 0 16 7 23 17 16 19 106 62 132 62 12 1 17
-7 17 -28z m-200 -5 c0 -7 -17 -21 -37 -30 -27 -11 -31 -15 -13 -12 14 2 33 7
43 11 32 13 18 -13 -19 -34 -48 -28 -60 -27 -68 10 -12 60 -12 59 77 67 9 1
17 -4 17 -12z m-523 -72 c-3 -3 -12 -4 -19 -1 -8 3 -5 6 6 6 11 1 17 -2 13 -5z
m423 -33 c0 -10 -24 -21 -48 -21 -9 0 -35 -5 -57 -11 -37 -10 -38 -12 -20 -25
23 -17 20 -20 -27 -28 -38 -7 -53 6 -22 18 28 11 4 26 -41 26 -45 0 -67 13
-39 24 9 3 46 6 82 7 37 1 78 5 92 9 35 11 80 12 80 1z m-367 -256 c119 -31
203 -67 210 -92 3 -10 9 -35 13 -57 6 -37 6 -38 -17 -31 -13 4 -92 29 -175 56
-83 27 -158 49 -167 49 -13 0 -17 10 -17 43 0 24 3 47 7 50 11 12 49 8 146
-18z m933 -262 c36 -49 36 -51 5 -68 -17 -8 -32 -15 -33 -15 -2 0 -21 20 -41
45 l-38 45 23 9 c40 17 64 12 84 -16z m-188 -46 c34 -32 65 -85 58 -102 -13
-34 -52 -28 -123 19 -37 25 -79 54 -92 65 l-24 19 29 16 c39 22 120 13 152
-17z m-580 -33 c17 -5 22 -14 22 -40 0 -32 -3 -34 -45 -45 -25 -6 -44 -14 -41
-16 2 -2 21 0 42 6 21 6 40 8 43 5 6 -6 -67 -74 -80 -74 -7 0 -39 84 -39 102
0 4 8 8 18 9 11 1 9 3 -7 8 -13 3 -28 16 -32 29 -8 21 -6 22 44 22 29 0 62 -3
75 -6z m278 -26 c-3 -13 -6 -29 -6 -35 0 -7 -10 -14 -22 -14 l-23 -2 23 -4
c22 -4 29 -32 16 -67 -5 -13 -14 -9 -50 20 -51 42 -54 53 -16 55 l27 2 -27 4
c-28 4 -40 32 -15 34 10 0 10 2 0 6 -30 12 -9 23 43 23 54 0 56 -1 50 -22z"/>
<path d="M2092 3420 c0 -19 2 -27 5 -17 2 9 2 25 0 35 -3 9 -5 1 -5 -18z"/>
<path d="M1855 3390 c-3 -5 -1 -10 4 -10 6 0 11 5 11 10 0 6 -2 10 -4 10 -3 0
-8 -4 -11 -10z"/>
<path d="M1810 3346 c0 -2 7 -6 15 -10 8 -3 15 -1 15 4 0 6 -7 10 -15 10 -8 0
-15 -2 -15 -4z"/>
<path d="M2148 3313 c7 -3 16 -2 19 1 4 3 -2 6 -13 5 -11 0 -14 -3 -6 -6z"/>
<path d="M1740 3300 c-9 -6 -10 -10 -3 -10 6 0 15 5 18 10 8 12 4 12 -15 0z"/>
<path d="M1586 3243 c-6 -14 -5 -15 5 -6 7 7 10 15 7 18 -3 3 -9 -2 -12 -12z"/>
<path d="M1388 3173 c7 -3 16 -2 19 1 4 3 -2 6 -13 5 -11 0 -14 -3 -6 -6z"/>
<path d="M1300 3011 c0 -10 19 -25 25 -20 1 2 -3 10 -11 17 -8 7 -14 8 -14 3z"/>
<path d="M2710 2936 c0 -2 7 -7 16 -10 8 -3 12 -2 9 4 -6 10 -25 14 -25 6z"/>
<path d="M2361 2904 c0 -11 3 -14 6 -6 3 7 2 16 -1 19 -3 4 -6 -2 -5 -13z"/>
<path d="M1250 2831 c0 -7 -5 -9 -12 -5 -7 5 -8 3 -3 -5 5 -9 10 -10 18 -2 6
6 8 14 4 18 -4 3 -7 1 -7 -6z"/>
<path d="M1891 2824 c0 -11 3 -14 6 -6 3 7 2 16 -1 19 -3 4 -6 -2 -5 -13z"/>
<path d="M2085 2799 c-4 -6 -5 -12 -2 -15 2 -3 7 2 10 11 7 17 1 20 -8 4z"/>
<path d="M1321 2534 c0 -11 3 -14 6 -6 3 7 2 16 -1 19 -3 4 -6 -2 -5 -13z"/>
<path d="M1853 2302 c-1 -22 0 -24 9 -8 6 10 6 22 2 26 -5 5 -10 -3 -11 -18z"/>
<path d="M1384 2169 c-4 -7 -3 -9 4 -5 6 3 13 -2 15 -11 4 -16 5 -16 6 -1 1
21 -15 32 -25 17z"/>
<path d="M1665 2090 c-3 -5 1 -10 9 -10 23 0 20 -17 -5 -30 -21 -12 -79 -4
-79 10 0 5 8 14 18 19 26 16 -4 13 -43 -3 -34 -15 -51 -34 -19 -22 9 3 27 -3
41 -14 14 -11 34 -20 44 -20 13 0 19 -7 19 -21 0 -18 -4 -20 -31 -14 -22 5
-29 4 -25 -4 4 -6 16 -11 27 -11 11 0 22 -8 25 -17 3 -10 11 -31 19 -48 12
-27 14 -28 21 -11 4 10 3 31 -3 45 -8 23 -6 29 14 44 13 10 23 23 23 29 0 6
-8 4 -18 -5 -10 -10 -24 -17 -30 -17 -17 0 -15 37 3 44 8 3 19 17 25 30 5 14
19 26 32 29 13 2 5 5 -19 6 -23 0 -45 -3 -48 -9z"/>
<path d="M2002 1918 c-18 -18 -15 -33 4 -17 13 11 19 10 37 -1 22 -13 22 -13
3 9 -22 24 -28 25 -44 9z"/>
<path d="M1855 1025 c17 -8 39 -14 50 -14 13 0 8 5 -15 14 -46 18 -74 17 -35
0z"/>
<path d="M1948 293 c12 -2 30 -2 40 0 9 3 -1 5 -23 4 -22 0 -30 -2 -17 -4z"/>
<path d="M2198 313 c6 -2 18 -2 25 0 6 3 1 5 -13 5 -14 0 -19 -2 -12 -5z"/>
<path d="M800 3074 c0 -6 11 -21 25 -34 25 -24 25 -24 80 -6 30 9 57 21 60 26
3 5 -16 3 -42 -5 -64 -20 -79 -19 -103 7 -11 12 -20 17 -20 12z"/>
<path d="M810 2935 c14 -8 53 -29 87 -46 l62 -33 41 19 c47 21 38 35 -26 35
-22 0 -67 9 -99 20 -69 24 -102 26 -65 5z"/>
<path d="M530 2896 c-74 -28 -87 -35 -138 -75 l-52 -41 0 -184 c0 -174 20
-391 51 -542 14 -72 23 -74 242 -72 l182 2 -187 5 c-150 5 -190 9 -203 21 -10
11 -25 83 -45 215 -24 161 -30 231 -30 367 0 165 0 167 25 192 60 60 168 116
224 116 60 0 88 -18 100 -65 7 -27 18 -45 28 -48 38 -11 93 -18 93 -12 0 15
-40 82 -60 100 l-23 20 22 -42 c28 -55 27 -63 -6 -54 -21 6 -30 17 -39 47 -7
24 -20 44 -35 51 -31 16 -105 16 -149 -1z"/>
<path d="M613 2626 c-35 -7 -66 -16 -70 -20 -4 -3 -2 -55 5 -114 28 -246 39
-271 142 -303 34 -10 69 -19 78 -18 10 0 -12 9 -48 20 -86 27 -117 58 -131
132 -17 95 -36 268 -30 272 4 2 35 8 69 15 60 11 65 10 118 -17 l56 -28 -34
-10 c-78 -24 -121 -77 -121 -149 0 -38 40 -182 48 -174 2 2 -5 35 -16 73 -25
93 -26 121 0 79 21 -35 71 -74 94 -74 9 0 18 -4 22 -9 7 -13 -43 -51 -68 -51
-11 0 -18 -3 -14 -6 13 -14 69 10 111 47 51 45 64 77 68 168 l3 65 -90 52
c-49 28 -99 54 -110 57 -11 3 -48 -1 -82 -7z m245 -96 c15 -14 22 -33 22 -57
0 -39 -1 -39 -44 20 -15 20 -31 37 -36 37 -6 0 6 -21 25 -46 47 -61 53 -89 29
-133 -16 -30 -25 -36 -51 -35 -39 2 -94 43 -119 89 -18 34 -18 36 0 70 20 37
84 75 127 75 14 0 35 -9 47 -20z"/>
<path d="M924 2471 c24 -25 28 -39 35 -127 l8 -99 2 101 c1 98 0 101 -27 127
-38 36 -53 35 -18 -2z"/>
</g>
</svg>
