<?xml version="1.0" standalone="no"?>
<!DOCTYPE svg PUBLIC "-//W3C//DTD SVG 20010904//EN"
 "http://www.w3.org/TR/2001/REC-SVG-20010904/DTD/svg10.dtd">
<svg version="1.0" xmlns="http://www.w3.org/2000/svg"
 width="756.000000pt" height="756.000000pt" viewBox="0 0 756.000000 756.000000"
 preserveAspectRatio="xMidYMid meet">
<metadata>
Created by potrace 1.14, written by Peter Selinger 2001-2017
</metadata>
<g transform="translate(0.000000,756.000000) scale(0.100000,-0.100000)"
fill="#000000" stroke="none">
<path d="M5425 7530 c-12 -56 -2 -67 73 -72 37 -3 92 -13 123 -23 56 -18 58
-18 90 2 43 24 79 77 72 103 -5 19 -14 20 -133 20 -119 0 -128 -1 -133 -20 -3
-11 -12 -20 -21 -20 -9 0 -16 8 -16 20 0 14 -7 20 -24 20 -19 0 -26 -7 -31
-30z"/>
<path d="M6411 7538 c-13 -22 -13 -22 4 -8 10 8 43 18 74 21 l56 6 -60 2 c-52
1 -62 -2 -74 -21z"/>
<path d="M6602 7551 c50 -10 104 -54 119 -96 7 -19 17 -35 22 -35 14 0 0 89
-18 117 -14 21 -23 23 -88 22 -59 -1 -65 -3 -35 -8z"/>
<path d="M6980 7539 c-19 -12 -40 -29 -46 -37 -7 -10 -26 -16 -48 -16 -27 0
-37 -5 -42 -19 -7 -23 14 -67 32 -67 7 0 37 -25 68 -56 39 -39 60 -70 72 -107
9 -29 27 -62 40 -75 13 -13 24 -28 24 -34 0 -6 17 -36 38 -66 20 -30 47 -71
59 -91 26 -43 30 -115 8 -137 -8 -9 -15 -24 -15 -35 0 -11 -7 -22 -15 -25 -8
-4 -15 -15 -15 -25 0 -45 -123 -234 -146 -225 -7 3 -15 -2 -18 -10 -3 -8 -11
-14 -18 -12 -18 3 -66 -30 -79 -55 -8 -14 -8 -18 0 -13 14 9 14 4 1 -30 -8
-19 -7 -30 2 -41 7 -9 8 -17 2 -21 -14 -10 -16 -164 -2 -156 7 5 9 1 5 -9 -5
-12 -1 -17 13 -17 10 0 21 8 23 18 4 16 5 16 6 0 1 -22 21 -24 21 -3 0 8 5 15
11 15 6 0 8 -7 5 -16 -8 -20 49 -44 104 -44 29 0 40 -4 40 -15 0 -9 9 -15 25
-15 14 0 25 -4 25 -10 0 -5 -8 -10 -18 -10 -26 0 -64 -43 -56 -63 5 -14 0 -17
-28 -17 -36 0 -75 -30 -64 -48 3 -5 -14 -13 -38 -16 -24 -4 -52 -16 -61 -26
-10 -11 -26 -20 -36 -20 -11 0 -16 -5 -13 -14 6 -17 -11 -23 -106 -43 -90 -18
-118 -20 -147 -9 -18 5 -23 4 -23 -8 0 -9 -8 -16 -17 -16 -10 0 -31 -7 -46
-15 -16 -8 -51 -15 -77 -16 -27 -1 -47 -6 -44 -11 3 -4 -10 -8 -28 -8 -19 0
-39 -5 -44 -10 -15 -15 -96 -18 -101 -3 -2 6 10 14 26 18 17 4 31 13 31 20 0
23 21 28 36 9 13 -16 15 -16 10 -2 -3 12 1 15 21 13 14 -1 33 4 42 12 9 7 29
24 45 37 31 24 29 46 -5 46 -20 0 -25 10 -10 26 5 5 11 18 13 29 2 12 11 20
23 20 13 0 20 7 20 20 0 14 -6 19 -17 17 -13 -2 -18 4 -18 21 0 39 -20 48 -80
37 -85 -16 -103 -13 -117 17 -19 41 -16 46 25 39 105 -19 125 -19 139 0 7 10
13 42 13 71 0 48 3 54 26 63 14 6 40 10 58 10 40 0 61 21 82 83 l16 47 51 1
c78 2 78 2 98 29 23 31 52 165 43 203 -25 116 -175 98 -234 -28 -29 -61 -33
-63 -102 -49 -83 17 -147 -2 -177 -52 -26 -44 -67 -45 -142 -4 -30 16 -62 30
-72 30 -10 0 -35 9 -57 20 -31 16 -45 18 -65 10 -22 -9 -31 -6 -51 12 -14 13
-31 38 -39 57 -13 29 -18 33 -42 27 -69 -17 -79 -17 -93 -1 -12 14 -11 21 4
46 14 24 16 44 12 107 -4 50 -2 89 7 112 11 31 16 35 47 34 19 -1 50 -7 68
-15 31 -13 35 -12 47 5 8 10 16 23 17 28 2 6 21 10 42 11 32 1 44 -4 66 -31
23 -28 29 -31 39 -18 7 8 11 30 9 48 -3 31 -6 33 -53 40 -28 5 -68 4 -92 -2
-23 -5 -69 -7 -102 -4 -93 10 -132 -26 -147 -134 -3 -29 -12 -56 -18 -60 -6
-5 -35 -12 -64 -15 -29 -4 -67 -13 -83 -22 -16 -8 -42 -22 -58 -30 -57 -30
-80 -60 -87 -115 -11 -87 -34 -94 -124 -42 -127 73 -240 125 -445 205 -92 36
-158 62 -256 103 -31 13 -106 31 -170 39 -63 9 -152 23 -199 32 -47 9 -107 18
-135 20 -27 2 -166 13 -307 24 -248 21 -262 21 -390 5 -294 -37 -450 -69 -427
-89 2 -3 33 1 69 8 268 52 490 68 735 55 110 -6 220 -15 245 -20 25 -6 92 -17
150 -24 184 -26 477 -103 595 -157 60 -27 234 -102 260 -111 17 -6 46 -21 65
-33 19 -11 73 -41 120 -64 47 -24 117 -65 155 -92 39 -26 111 -72 160 -101 69
-41 117 -80 209 -173 118 -119 252 -274 320 -370 115 -161 120 -172 94 -192
-17 -12 -171 -57 -273 -78 -44 -9 -116 -27 -160 -40 -44 -13 -102 -26 -130
-29 -88 -11 -335 -64 -580 -125 -350 -86 -325 -85 -555 -21 -80 22 -192 51
-250 64 -58 13 -136 33 -175 44 -167 49 -347 104 -440 136 -55 19 -163 53
-240 76 -77 23 -205 63 -285 90 -80 27 -183 58 -230 70 -47 12 -116 32 -155
45 -38 13 -137 45 -220 70 -82 26 -203 64 -267 86 -65 21 -124 39 -132 39 -8
0 -68 18 -133 39 -65 21 -174 56 -243 76 -69 21 -147 50 -175 65 -30 16 -72
29 -105 33 -30 3 -98 15 -150 26 -448 101 -518 106 -536 34 -10 -38 12 -94
132 -337 57 -116 107 -229 111 -250 3 -23 18 -52 35 -70 16 -17 61 -87 100
-156 39 -69 112 -188 163 -265 51 -77 110 -170 133 -206 133 -219 477 -733
574 -860 51 -67 103 -135 115 -152 47 -65 188 -209 246 -253 34 -26 82 -66
107 -90 49 -46 259 -160 349 -189 74 -24 230 -15 364 20 138 36 449 150 551
202 28 14 78 36 111 49 33 12 91 34 128 48 38 14 87 35 109 46 23 11 48 20 55
20 14 0 113 47 113 54 0 2 -18 3 -39 2 -48 -1 -82 27 -117 96 -13 26 -54 91
-89 143 -88 129 -182 317 -397 795 -38 85 -114 245 -169 356 -54 110 -99 204
-99 209 0 23 48 -43 185 -250 83 -126 173 -266 200 -310 26 -44 82 -132 123
-195 41 -63 122 -194 180 -290 58 -96 136 -224 174 -283 82 -127 118 -197 118
-226 0 -26 20 -22 120 19 174 73 214 83 323 77 163 -8 267 -51 802 -331 260
-137 452 -216 524 -216 54 0 184 31 230 54 16 9 40 30 52 47 l23 32 -28 -7
c-41 -10 -65 10 -132 110 -48 72 -249 333 -322 419 -73 86 -219 264 -268 326
-76 97 -382 433 -558 613 -77 77 -136 146 -134 154 4 19 146 65 288 93 58 11
146 31 195 44 87 23 277 55 322 55 33 0 58 -32 227 -285 215 -322 253 -387
469 -790 131 -246 188 -365 189 -393 1 -15 -7 -42 -16 -61 -17 -31 -17 -34 0
-52 11 -12 22 -53 30 -108 18 -121 34 -162 121 -330 74 -141 76 -144 69 -200
-3 -31 -9 -66 -12 -77 -5 -18 4 -27 55 -55 60 -33 68 -43 101 -126 14 -37 31
-40 108 -23 31 7 55 7 83 -1 45 -14 62 -31 78 -79 11 -36 73 -108 95 -112 6
-1 38 -2 71 -4 33 -1 99 -5 148 -9 l87 -8 0 2387 0 2386 -272 0 c-261 0 -275
-1 -308 -21z m-1349 -825 c37 -19 33 -35 -11 -47 -19 -5 -46 -17 -61 -28 -15
-10 -35 -19 -46 -19 -10 0 -25 -4 -32 -9 -25 -16 -51 6 -51 42 0 27 6 36 38
53 45 26 121 30 163 8z m1596 -455 c2 -27 7 -31 35 -34 13 -2 34 -8 48 -14 22
-10 19 -11 -20 -7 -30 4 -38 2 -25 -3 16 -7 17 -10 5 -15 -8 -3 -26 -7 -40 -8
-22 -3 -25 1 -25 29 0 17 -3 29 -7 26 -5 -2 -8 3 -8 11 0 9 5 16 11 16 5 0 7
5 4 10 -3 6 0 10 7 10 8 0 14 -10 15 -21z m-47 -45 c0 -8 -9 -14 -20 -14 -23
0 -25 6 -7 24 14 16 27 11 27 -10z m-17 -101 c-7 -2 -21 -2 -30 0 -10 3 -4 5
12 5 17 0 24 -2 18 -5z m57 -23 c0 -5 -4 -10 -10 -10 -5 0 -10 5 -10 10 0 6 5
10 10 10 6 0 10 -4 10 -10z m-5257 -35 c67 -19 151 -44 187 -55 36 -12 124
-39 195 -60 72 -21 168 -50 215 -65 47 -14 112 -34 145 -44 127 -39 161 -66
235 -190 14 -23 57 -89 95 -147 39 -59 119 -183 178 -278 59 -94 145 -227 191
-296 112 -168 203 -308 261 -405 40 -65 131 -192 155 -215 3 -3 14 -21 24 -40
10 -19 50 -82 87 -140 92 -142 96 -153 75 -184 -9 -15 -32 -30 -55 -36 -32 -8
-99 -36 -196 -80 -27 -13 -194 -76 -223 -85 -52 -15 -71 6 -267 302 -191 288
-330 481 -487 675 -47 57 -109 140 -138 184 -30 43 -75 106 -102 139 -71 89
-205 272 -245 335 -20 30 -52 78 -73 105 -167 224 -362 504 -401 577 -10 19
-5 38 12 38 5 0 64 -16 132 -35z m5167 -35 c-6 -12 -16 -18 -23 -13 -8 5 -8 8
1 11 7 2 10 8 6 13 -3 5 2 9 11 9 13 0 14 -4 5 -20z m-827 -17 c-13 -2 -33 -2
-45 0 -13 2 -3 4 22 4 25 0 35 -2 23 -4z"/>
<path d="M5979 7536 c-15 -7 -39 -18 -55 -23 l-29 -10 57 -29 c32 -15 60 -25
64 -22 10 11 9 77 -2 88 -6 6 -19 5 -35 -4z"/>
<path d="M6313 7372 c-42 -22 -41 -32 1 -32 35 0 63 21 51 40 -8 13 -13 12
-52 -8z"/>
<path d="M6087 7031 c-3 -11 -2 -22 1 -25 8 -9 45 -7 61 3 12 8 12 12 2 25
-19 23 -58 20 -64 -3z"/>
<path d="M7021 6104 c0 -11 3 -14 6 -6 3 7 2 16 -1 19 -3 4 -6 -2 -5 -13z"/>
<path d="M6540 5880 c-9 -6 -10 -10 -3 -10 6 0 15 5 18 10 8 12 4 12 -15 0z"/>
<path d="M6447 5813 c-4 -3 -7 -11 -7 -17 0 -6 5 -5 12 2 6 6 9 14 7 17 -3 3
-9 2 -12 -2z"/>
<path d="M656 5283 c-14 -20 -26 -42 -26 -47 0 -4 -11 -34 -24 -65 -13 -31
-38 -99 -55 -151 -17 -52 -38 -115 -47 -140 -38 -105 -80 -262 -99 -370 -9
-52 -25 -117 -35 -145 -36 -98 -59 -191 -70 -290 -16 -139 -18 -143 -63 -176
-22 -16 -49 -43 -59 -59 -17 -29 -20 -30 -98 -30 l-80 0 0 -217 c1 -247 -5
-243 72 -43 23 58 55 125 73 150 18 25 46 72 63 105 29 57 62 85 99 85 25 0
42 -47 52 -145 12 -106 74 -345 87 -332 3 3 -7 55 -43 232 -14 72 -18 135 -18
310 1 226 11 324 57 540 10 50 26 126 35 170 19 94 133 447 164 507 24 47 53
138 46 145 -3 2 -17 -13 -31 -34z"/>
<path d="M451 3380 c0 -14 3 -32 9 -40 15 -24 18 -7 4 30 -11 31 -13 32 -13
10z"/>
<path d="M506 3208 c4 -18 7 -61 5 -95 -2 -56 0 -63 23 -78 13 -9 27 -26 30
-38 6 -25 149 -265 219 -369 115 -169 251 -319 432 -473 66 -56 135 -116 153
-133 18 -17 78 -58 135 -92 56 -33 125 -75 152 -92 60 -37 409 -212 445 -223
14 -4 75 -29 135 -55 115 -50 278 -99 480 -146 128 -29 272 -44 262 -27 -8 13
-130 51 -252 78 -55 13 -143 34 -196 48 -121 34 -506 178 -573 216 -28 16 -89
49 -136 74 -47 24 -103 55 -125 67 -22 13 -61 33 -86 46 -26 13 -52 31 -59 39
-7 8 -17 15 -22 15 -21 0 -234 170 -333 265 -23 22 -70 67 -106 100 -35 33
-71 71 -80 85 -9 14 -32 41 -50 60 -69 71 -120 132 -135 162 -9 17 -20 36 -25
42 -28 34 -71 108 -168 291 -31 58 -87 184 -100 228 -16 47 -37 51 -25 5z"/>
<path d="M4510 3098 c0 -21 71 -118 86 -118 23 0 16 15 -32 74 -49 59 -54 63
-54 44z"/>
<path d="M6413 2909 c-34 -10 -36 -13 -33 -66 1 -19 -11 -57 -29 -93 -48 -94
-37 -107 30 -39 40 40 40 41 92 33 67 -10 106 -9 118 3 15 15 -25 90 -51 98
-12 4 -28 22 -37 41 -18 36 -32 40 -90 23z"/>
<path d="M195 2751 c6 -6 26 -14 44 -17 26 -6 33 -4 29 7 -3 8 -21 15 -44 17
-27 2 -36 0 -29 -7z"/>
<path d="M6120 2365 c-7 -9 -10 -18 -7 -21 10 -11 37 5 37 21 0 19 -14 19 -30
0z"/>
<path d="M5933 2163 c-18 -6 -16 -33 1 -33 15 0 30 27 18 33 -4 3 -13 2 -19 0z"/>
<path d="M7540 2122 c-31 -10 -60 -46 -60 -75 0 -21 11 -40 38 -65 l37 -36 3
47 c6 85 -1 134 -18 129z"/>
<path d="M6700 2010 c52 -44 83 -38 40 8 -12 12 -33 22 -48 22 l-27 -1 35 -29z"/>
<path d="M6826 1915 c4 -8 10 -15 15 -15 4 0 25 -19 46 -41 21 -23 80 -85 132
-138 52 -53 144 -152 206 -221 62 -69 132 -143 155 -165 23 -22 71 -77 107
-122 36 -46 67 -83 69 -83 2 0 4 130 4 289 l0 289 -26 6 c-19 5 -34 0 -63 -23
-20 -16 -63 -44 -95 -61 -47 -26 -64 -31 -94 -25 -80 15 -142 103 -122 173 6
25 -5 82 -17 82 -3 0 -15 -8 -28 -18 -32 -26 -97 -27 -137 -2 -18 11 -41 20
-50 20 -9 0 -32 16 -51 35 -35 36 -61 46 -51 20z"/>
<path d="M4469 1426 c-13 -13 -305 -63 -382 -65 -10 -1 -15 -6 -12 -12 13 -20
366 34 423 65 l27 15 -26 1 c-14 0 -28 -2 -30 -4z"/>
<path d="M3310 1351 c39 -12 417 -22 490 -12 56 7 42 9 -95 10 -88 2 -218 4
-290 6 -72 2 -119 0 -105 -4z"/>
<path d="M3933 1343 c9 -2 23 -2 30 0 6 3 -1 5 -18 5 -16 0 -22 -2 -12 -5z"/>
<path d="M4003 1343 c9 -2 25 -2 35 0 9 3 1 5 -18 5 -19 0 -27 -2 -17 -5z"/>
<path d="M624 26 c-8 -22 1 -30 21 -19 15 9 15 11 1 22 -13 11 -17 10 -22 -3z"/>
</g>
</svg>
